<svg width="20" height="20" viewBox="0 0 20 20" fill="none" xmlns="http://www.w3.org/2000/svg">
<path d="M0.936763 8.67223L9.68676 13.6722C9.78122 13.7262 9.88813 13.7546 9.99692 13.7546C10.1057 13.7546 10.2126 13.7262 10.3071 13.6722L19.0571 8.67223C19.1529 8.61761 19.2325 8.53861 19.288 8.44324C19.3434 8.34788 19.3725 8.23955 19.3725 8.12926C19.3725 8.01897 19.3434 7.91065 19.288 7.81528C19.2325 7.71992 19.1529 7.64092 19.0571 7.58629L10.3071 2.58629C10.2126 2.5323 10.1057 2.50391 9.99692 2.50391C9.88813 2.50391 9.78122 2.5323 9.68676 2.58629L0.936763 7.58629C0.840948 7.64092 0.761293 7.71992 0.705886 7.81528C0.650479 7.91065 0.621294 8.01897 0.621294 8.12926C0.621294 8.23955 0.650479 8.34788 0.705886 8.44324C0.761293 8.53861 0.840948 8.61761 0.936763 8.67223Z" fill="#402FD3"/>
<path d="M18.4368 10.7074L9.99926 15.5308L1.56176 10.7074C1.4902 10.6664 1.41126 10.6398 1.32944 10.6293C1.24762 10.6187 1.16453 10.6244 1.08492 10.646C1.0053 10.6676 0.930708 10.7047 0.865409 10.7551C0.80011 10.8055 0.745379 10.8682 0.704341 10.9398C0.663303 11.0114 0.636761 11.0903 0.626232 11.1721C0.615703 11.2539 0.621391 11.337 0.642974 11.4167C0.664556 11.4963 0.701609 11.5709 0.752018 11.6362C0.802426 11.7015 0.865202 11.7562 0.936763 11.7972L9.68676 16.7972C9.78122 16.8512 9.88812 16.8796 9.99692 16.8796C10.1057 16.8796 10.2126 16.8512 10.3071 16.7972L19.0571 11.7972C19.1284 11.7565 19.191 11.7021 19.2413 11.6372C19.2915 11.5723 19.3286 11.4981 19.3502 11.4189C19.3718 11.3397 19.3776 11.257 19.3672 11.1755C19.3569 11.094 19.3306 11.0154 19.2899 10.9441C19.2492 10.8728 19.1948 10.8102 19.1299 10.7599C19.0649 10.7096 18.9908 10.6726 18.9115 10.651C18.8323 10.6294 18.7496 10.6236 18.6682 10.6339C18.5867 10.6443 18.5081 10.6706 18.4368 10.7113V10.7074Z" fill="#402FD3"/>
</svg>
