<svg width="152" height="32" viewBox="0 0 152 32" fill="none" xmlns="http://www.w3.org/2000/svg">
<mask id="path-1-inside-1_190_1101" fill="white">
<path d="M26.7336 30.0437C24.8302 31.3191 22.592 32 20.3028 32H0.000198364L7.84317 24.1356H20.3028C21.0411 24.1356 21.7626 23.9159 22.3765 23.5047C22.99 23.0935 23.4683 22.5088 23.7509 21.8252C24.0335 21.1412 24.1072 20.3888 23.9633 19.663C23.8936 19.3104 23.7739 18.972 23.6094 18.6569C23.4352 18.3231 23.2106 18.0159 22.9421 17.7466L18.6205 13.3288L24.1294 7.80444L28.4876 12.1855C30.1064 13.8088 31.2091 15.8772 31.6554 18.1285C32.1021 20.3802 31.8729 22.7136 30.9971 24.8348C30.1208 26.9556 28.6373 28.7684 26.7336 30.0437Z"/>
</mask>
<path d="M23.6094 18.6569L19.9864 20.5764L19.9793 20.5629L19.9723 20.5494L23.6094 18.6569ZM23.595 18.6296L27.2131 16.7011L27.2227 16.7191L27.2321 16.7371L23.595 18.6296ZM23.6289 18.6945L19.972 20.5484L19.9658 20.5362L19.9597 20.524L23.6289 18.6945ZM22.9421 17.7466L25.8452 14.8514C26.3931 15.4009 26.8528 16.025 27.2131 16.7011L23.595 18.6296L19.9768 20.5581C19.9926 20.5876 20.0133 20.6161 20.039 20.6418L22.9421 17.7466ZM23.6289 18.6945L27.2858 16.8405C27.6082 17.4765 27.8448 18.1575 27.9852 18.8664L23.9633 19.663L19.9414 20.4596C19.9478 20.4915 19.9583 20.5214 19.972 20.5484L23.6289 18.6945ZM23.595 18.6296L27.2321 16.7371C27.2283 16.7298 27.2255 16.7244 27.2243 16.7223C27.2234 16.7204 27.2227 16.7192 27.2242 16.7221C27.2251 16.7238 27.2282 16.7296 27.2316 16.736C27.2352 16.7427 27.2404 16.7527 27.2465 16.7645L23.6094 18.6569L19.9723 20.5494C19.9761 20.5567 19.9789 20.5621 19.9801 20.5643C19.981 20.5661 19.9817 20.5673 19.9801 20.5644C19.9792 20.5627 19.9761 20.5569 19.9728 20.5505C19.9692 20.5438 19.964 20.5338 19.9578 20.522L23.595 18.6296ZM23.6094 18.6569L27.2324 16.7375C27.2347 16.7419 27.2654 16.7994 27.2981 16.8649L23.6289 18.6945L19.9597 20.524C19.9715 20.5476 19.9806 20.5653 19.9847 20.5731C19.9882 20.5798 19.9908 20.5846 19.9864 20.5764L23.6094 18.6569ZM26.7336 30.0437L22.169 23.2316L22.1696 23.2312L26.7336 30.0437ZM0.000198364 32V40.2H-19.7583L-5.80601 26.2096L0.000198364 32ZM7.84317 24.1356L2.03696 18.3452L4.44005 15.9355H7.84317V24.1356ZM22.3765 23.5047L26.9416 30.3165L26.9396 30.3178L22.3765 23.5047ZM23.7509 21.8252L31.3296 24.9564L31.3289 24.9579L23.7509 21.8252ZM23.9633 19.663L15.9197 21.257L15.9193 21.255L23.9633 19.663ZM23.6094 18.6569L16.3406 22.4523L16.3401 22.4514L23.6094 18.6569ZM22.9421 17.7466L17.1359 23.537L17.1079 23.509L17.0803 23.4807L22.9421 17.7466ZM18.6205 13.3288L12.7587 19.0629L7.09531 13.2734L12.8141 7.53862L18.6205 13.3288ZM24.1294 7.80444L18.323 2.01427L24.1364 -3.81551L29.9428 2.02133L24.1294 7.80444ZM28.4876 12.1855L22.6814 17.9759L22.6742 17.9687L28.4876 12.1855ZM31.6554 18.1285L23.6122 19.7241L23.6119 19.7231L31.6554 18.1285ZM30.9971 24.8348L38.5764 27.9644L38.5757 27.9661L30.9971 24.8348ZM26.7336 30.0437L31.2981 36.8559C28.0457 39.0352 24.219 40.2 20.3028 40.2V32V23.7999C20.9651 23.7999 21.6147 23.603 22.169 23.2316L26.7336 30.0437ZM20.3028 32V40.2H0.000198364V32V23.7999H20.3028V32ZM0.000198364 32L-5.80601 26.2096L2.03696 18.3452L7.84317 24.1356L13.6494 29.9259L5.80641 37.7903L0.000198364 32ZM7.84317 24.1356V15.9355H20.3028V24.1356V32.3356H7.84317V24.1356ZM20.3028 24.1356V15.9355C19.4128 15.9355 18.5466 16.2005 17.8133 16.6916L22.3765 23.5047L26.9396 30.3178C24.9785 31.6313 22.6694 32.3356 20.3028 32.3356V24.1356ZM22.3765 23.5047L17.8113 16.693C17.0753 17.1863 16.5073 17.8835 16.1729 18.6925L23.7509 21.8252L31.3289 24.9579C30.4293 27.1341 28.9048 29.0008 26.9416 30.3165L22.3765 23.5047ZM23.7509 21.8252L16.1722 18.694C15.8362 19.5072 15.7497 20.399 15.9197 21.257L23.9633 19.663L32.0069 18.069C32.4646 20.3787 32.2307 22.7752 31.3296 24.9564L23.7509 21.8252ZM23.9633 19.663L15.9193 21.255C16.0023 21.6741 16.1448 22.0773 16.3406 22.4523L23.6094 18.6569L30.8782 14.8616C31.403 15.8667 31.7848 16.9468 32.0073 18.071L23.9633 19.663ZM23.6094 18.6569L16.3401 22.4514C16.548 22.8497 16.8159 23.2161 17.1359 23.537L22.9421 17.7466L28.7483 11.9563C29.6054 12.8157 30.3223 13.7966 30.8787 14.8624L23.6094 18.6569ZM22.9421 17.7466L17.0803 23.4807L12.7587 19.0629L18.6205 13.3288L24.4823 7.59469L28.8039 12.0125L22.9421 17.7466ZM18.6205 13.3288L12.8141 7.53862L18.323 2.01427L24.1294 7.80444L29.9358 13.5946L24.4269 19.119L18.6205 13.3288ZM24.1294 7.80444L29.9428 2.02133L34.3011 6.40243L28.4876 12.1855L22.6742 17.9687L18.3159 13.5876L24.1294 7.80444ZM28.4876 12.1855L34.2938 6.39516C37.0574 9.16633 38.9379 12.6951 39.6989 16.5339L31.6554 18.1285L23.6119 19.7231C23.4803 19.0592 23.1554 18.4512 22.6814 17.9759L28.4876 12.1855ZM31.6554 18.1285L39.6987 16.5329C40.4601 20.3709 40.0695 24.3483 38.5764 27.9644L30.9971 24.8348L23.4178 21.7052C23.6764 21.0789 23.7442 20.3895 23.6122 19.7241L31.6554 18.1285ZM30.9971 24.8348L38.5757 27.9661C37.0817 31.5821 34.5505 34.677 31.2975 36.8563L26.7336 30.0437L22.1696 23.2312C22.7241 22.8597 23.16 22.3291 23.4185 21.7035L30.9971 24.8348Z" fill="#6B75FF" mask="url(#path-1-inside-1_190_1101)"/>
<mask id="path-3-inside-2_190_1101" fill="white">
<path d="M11.5751 -5.14984e-05H32.0001L24.1572 7.86435H11.5751C10.8369 7.86435 10.1154 8.08401 9.50144 8.49519C8.88791 8.90637 8.40964 9.4907 8.12704 10.1747C7.84444 10.8587 7.77077 11.6111 7.9146 12.3369C7.99802 12.7579 8.15237 13.1589 8.3691 13.5232C8.52657 13.7878 8.7164 14.0332 8.93585 14.2533L13.3183 18.7329L7.80936 24.2568L3.39031 19.814C1.77151 18.1908 0.668794 16.1227 0.222484 13.8714C-0.224215 11.6197 0.00498118 9.2859 0.88084 7.16511C1.75709 5.04433 3.24063 3.23154 5.14436 1.95618C7.04771 0.680819 9.28588 -5.14984e-05 11.5751 -5.14984e-05Z"/>
</mask>
<path d="M8.09196 12.9513L4.32185 14.5627L4.29099 14.4905L4.26292 14.4171L8.09196 12.9513ZM8.09508 12.9592L11.8652 11.3478L11.8931 11.4132L11.9188 11.4796L8.09508 12.9592ZM8.09196 12.9513L4.26292 14.4171C4.10515 14.005 3.98049 13.5761 3.89293 13.1346L7.9146 12.3369L11.9363 11.5392C11.9321 11.5183 11.9267 11.5005 11.921 11.4855L8.09196 12.9513ZM8.3691 13.5232L4.84411 15.6171C4.61948 15.239 4.42833 14.8445 4.27133 14.4387L8.09508 12.9592L11.9188 11.4796C11.9131 11.4647 11.9051 11.4478 11.8941 11.4292L8.3691 13.5232ZM8.09508 12.9592L4.32497 14.5705C4.30621 14.5266 4.29138 14.4898 4.28127 14.4642C4.27629 14.4516 4.27228 14.4413 4.26973 14.4347C4.26845 14.4314 4.2674 14.4287 4.26673 14.4269C4.2664 14.4261 4.26612 14.4253 4.26594 14.4249C4.26577 14.4244 4.26562 14.424 4.26561 14.424C4.26547 14.4236 4.26588 14.4247 4.26637 14.426C4.26691 14.4274 4.26784 14.4298 4.269 14.4328C4.2713 14.4388 4.27506 14.4484 4.27978 14.4604C4.28939 14.4847 4.30367 14.5202 4.32185 14.5627L8.09196 12.9513L11.8621 11.34C11.8808 11.3839 11.8956 11.4207 11.9058 11.4463C11.9107 11.4589 11.9148 11.4692 11.9173 11.4758C11.9186 11.4791 11.9196 11.4818 11.9203 11.4836C11.9206 11.4844 11.9209 11.4852 11.9211 11.4856C11.9213 11.4861 11.9214 11.4865 11.9214 11.4865C11.9216 11.4868 11.9212 11.4858 11.9207 11.4845C11.9201 11.4831 11.9192 11.4807 11.918 11.4777C11.9157 11.4717 11.912 11.462 11.9073 11.4501C11.8976 11.4258 11.8834 11.3903 11.8652 11.3478L8.09508 12.9592ZM32.0001 -5.14984e-05V-8.20008H51.7586L37.8063 5.79033L32.0001 -5.14984e-05ZM24.1572 7.86435L29.9634 13.6547L27.5603 16.0644H24.1572V7.86435ZM9.50144 8.49519L4.93629 1.68344L4.93829 1.6821L9.50144 8.49519ZM7.9146 12.3369L15.9582 10.7429L15.9582 10.743L7.9146 12.3369ZM8.3691 13.5232L1.32251 17.7168L1.32195 17.7158L8.3691 13.5232ZM8.93585 14.2533L14.7421 8.4629L14.7699 8.49077L14.7974 8.51891L8.93585 14.2533ZM13.3183 18.7329L19.1798 12.9985L24.8439 18.7882L19.1245 24.5233L13.3183 18.7329ZM7.80936 24.2568L13.6156 30.0472L7.80168 35.877L1.99551 30.0395L7.80936 24.2568ZM3.39031 19.814L9.19652 14.0236L9.20416 14.0313L3.39031 19.814ZM0.222484 13.8714L8.26577 12.2758L8.26598 12.2768L0.222484 13.8714ZM0.88084 7.16511L-6.69828 4.03502L-6.69779 4.03383L0.88084 7.16511ZM5.14436 1.95618L9.70893 8.76832L9.70829 8.76875L5.14436 1.95618ZM11.5751 -5.14984e-05V-8.20008H32.0001V-5.14984e-05V8.19998H11.5751V-5.14984e-05ZM32.0001 -5.14984e-05L37.8063 5.79033L29.9634 13.6547L24.1572 7.86435L18.351 2.07397L26.1939 -5.79043L32.0001 -5.14984e-05ZM24.1572 7.86435V16.0644H11.5751V7.86435V-0.33568H24.1572V7.86435ZM11.5751 7.86435V16.0644C12.4652 16.0644 13.3313 15.7994 14.0646 15.3083L9.50144 8.49519L4.93829 1.6821C6.89937 0.368643 9.20853 -0.33568 11.5751 -0.33568V7.86435ZM9.50144 8.49519L14.0666 15.3069C14.8014 14.8145 15.3705 14.1171 15.7057 13.3059L8.12704 10.1747L0.548366 7.04352C1.44873 4.8643 2.97445 2.99824 4.93629 1.68344L9.50144 8.49519ZM8.12704 10.1747L15.7057 13.3059C16.0417 12.4927 16.1282 11.6009 15.9582 10.7429L7.9146 12.3369L-0.129015 13.9309C-0.586707 11.6212 -0.352808 9.22472 0.548366 7.04352L8.12704 10.1747ZM7.9146 12.3369L15.9582 10.743C15.8597 10.246 15.6767 9.76825 15.4163 9.33053L8.3691 13.5232L1.32195 17.7158C0.62808 16.5495 0.136294 15.2698 -0.129027 13.9308L7.9146 12.3369ZM8.3691 13.5232L15.4157 9.32957C15.2316 9.0203 15.0065 8.72805 14.7421 8.4629L8.93585 14.2533L3.12965 20.0437C2.42631 19.3384 1.82152 18.5552 1.32251 17.7168L8.3691 13.5232ZM8.93585 14.2533L14.7974 8.51891L19.1798 12.9985L13.3183 18.7329L7.45673 24.4672L3.07432 19.9876L8.93585 14.2533ZM13.3183 18.7329L19.1245 24.5233L13.6156 30.0472L7.80936 24.2568L2.00315 18.4665L7.51205 12.9425L13.3183 18.7329ZM7.80936 24.2568L1.99551 30.0395L-2.42354 25.5967L3.39031 19.814L9.20416 14.0313L13.6232 18.4741L7.80936 24.2568ZM3.39031 19.814L-2.4159 25.6044C-5.17918 22.8335 -7.05991 19.3052 -7.82102 15.466L0.222484 13.8714L8.26598 12.2768C8.3975 12.9402 8.7222 13.548 9.19652 14.0236L3.39031 19.814ZM0.222484 13.8714L-7.8208 15.4671C-8.58215 11.6292 -8.19173 7.65123 -6.69828 4.03502L0.88084 7.16511L8.45996 10.2952C8.2017 10.9206 8.13372 11.6101 8.26577 12.2758L0.222484 13.8714ZM0.88084 7.16511L-6.69779 4.03383C-5.20377 0.417847 -2.67255 -2.67713 0.580443 -4.85639L5.14436 1.95618L9.70829 8.76875C9.1538 9.14022 8.71794 9.67081 8.45947 10.2964L0.88084 7.16511ZM5.14436 1.95618L0.579798 -4.85596C3.83223 -7.0353 7.65893 -8.20008 11.5751 -8.20008V-5.14984e-05V8.19998C10.9128 8.19998 10.2632 8.39693 9.70893 8.76832L5.14436 1.95618Z" fill="#6B75FF" mask="url(#path-3-inside-2_190_1101)"/>
<path d="M45.7421 12.0022C45.7421 12.6743 46.0781 13.2189 46.7502 13.6361C47.4223 14.0301 48.2335 14.3546 49.1837 14.6095C50.1339 14.8412 51.0841 15.1194 52.0343 15.4438C52.9845 15.7451 53.7957 16.2781 54.4678 17.0429C55.1399 17.7846 55.4759 18.7464 55.4759 19.9283C55.4759 21.5043 54.8618 22.7674 53.6334 23.7176C52.4283 24.6678 50.8755 25.1429 48.9751 25.1429C47.2833 25.1429 45.8348 24.7721 44.6296 24.0305C43.4245 23.2888 42.567 22.3039 42.0571 21.0755L44.6644 19.5807C44.9425 20.415 45.464 21.0755 46.2288 21.5622C46.9936 22.0489 47.909 22.2923 48.9751 22.2923C49.9717 22.2923 50.7944 22.1069 51.4433 21.736C52.0923 21.3421 52.4167 20.7395 52.4167 19.9283C52.4167 19.2562 52.0807 18.7232 51.4086 18.3292C50.7365 17.912 49.9253 17.5876 48.9751 17.3558C48.0249 17.1009 47.0747 16.8112 46.1245 16.4867C45.1743 16.1623 44.3631 15.6292 43.691 14.8876C43.0189 14.146 42.6829 13.1958 42.6829 12.037C42.6829 10.5305 43.2623 9.29064 44.4211 8.31725C45.603 7.34387 47.0747 6.85718 48.8361 6.85718C50.2498 6.85718 51.5013 7.18164 52.5905 7.83056C53.703 8.45631 54.5373 9.33699 55.0935 10.4726L52.5558 11.8979C51.93 10.4147 50.6901 9.67304 48.8361 9.67304C47.9785 9.67304 47.2485 9.88162 46.6459 10.2988C46.0434 10.6928 45.7421 11.2606 45.7421 12.0022Z" fill="#09090B"/>
<path d="M66.0558 25.1429C63.4369 25.1429 61.2584 24.2738 59.5202 22.5356C57.782 20.7743 56.9129 18.5957 56.9129 16C56.9129 13.4043 57.782 11.2374 59.5202 9.49922C61.2584 7.73786 63.4369 6.85718 66.0558 6.85718C67.7708 6.85718 69.312 7.27434 70.6793 8.10867C72.0467 8.91982 73.0665 10.0207 73.7386 11.4112L71.2008 12.8713C70.7605 11.9443 70.0768 11.2026 69.1497 10.6464C68.2459 10.0902 67.2146 9.81209 66.0558 9.81209C64.3176 9.81209 62.8575 10.4031 61.6755 11.585C60.5168 12.767 59.9374 14.2387 59.9374 16C59.9374 17.7382 60.5168 19.1983 61.6755 20.3803C62.8575 21.5622 64.3176 22.1532 66.0558 22.1532C67.2146 22.1532 68.2575 21.8867 69.1845 21.3536C70.1115 20.7974 70.8184 20.0558 71.3051 19.1288L73.8776 20.6236C73.136 21.991 72.0699 23.0918 70.6793 23.9262C69.2888 24.7373 67.7476 25.1429 66.0558 25.1429Z" fill="#09090B"/>
<path d="M90.323 7.30911H93.3475V24.691H90.323V21.7013C88.8166 23.9957 86.6265 25.1429 83.7527 25.1429C81.3192 25.1429 79.245 24.2622 77.53 22.5008C75.815 20.7163 74.9575 18.5494 74.9575 16C74.9575 13.4507 75.815 11.2953 77.53 9.53398C79.245 7.74945 81.3192 6.85718 83.7527 6.85718C86.6265 6.85718 88.8166 8.00438 90.323 10.2988V7.30911ZM84.1351 22.2227C85.8964 22.2227 87.3681 21.6318 88.5501 20.4498C89.732 19.2446 90.323 17.7614 90.323 16C90.323 14.2387 89.732 12.767 88.5501 11.585C87.3681 10.3799 85.8964 9.77733 84.1351 9.77733C82.3969 9.77733 80.9368 10.3799 79.7548 11.585C78.5729 12.767 77.9819 14.2387 77.9819 16C77.9819 17.7614 78.5729 19.2446 79.7548 20.4498C80.9368 21.6318 82.3969 22.2227 84.1351 22.2227Z" fill="#09090B"/>
<path d="M105.891 6.85718C107.93 6.85718 109.564 7.5061 110.792 8.80395C112.021 10.0786 112.635 11.8168 112.635 14.0185V24.691H109.61V14.1923C109.61 12.7786 109.228 11.6893 108.463 10.9245C107.698 10.1366 106.644 9.74257 105.3 9.74257C103.793 9.74257 102.576 10.2177 101.649 11.1679C100.722 12.0949 100.259 13.5318 100.259 15.4786V24.691H97.2345V7.30911H100.259V9.81209C101.487 7.84215 103.364 6.85718 105.891 6.85718Z" fill="#09090B"/>
<path d="M118.282 17.3906C118.584 18.9434 119.29 20.1485 120.403 21.006C121.538 21.8635 122.929 22.2923 124.575 22.2923C126.869 22.2923 128.538 21.4464 129.58 19.7545L132.153 21.2146C130.461 23.8335 127.912 25.1429 124.505 25.1429C121.747 25.1429 119.499 24.2854 117.761 22.5704C116.046 20.8322 115.188 18.6421 115.188 16C115.188 13.3812 116.034 11.2026 117.726 9.46446C119.418 7.72627 121.608 6.85718 124.296 6.85718C126.846 6.85718 128.92 7.76103 130.519 9.56875C132.141 11.3533 132.953 13.5086 132.953 16.0348C132.953 16.4751 132.918 16.9271 132.848 17.3906H118.282ZM124.296 9.7078C122.674 9.7078 121.33 10.1713 120.264 11.0984C119.198 12.0022 118.537 13.2189 118.282 14.7485H129.893C129.638 13.1031 128.99 11.8516 127.947 10.9941C126.904 10.1366 125.687 9.7078 124.296 9.7078Z" fill="#09090B"/>
<path d="M144.39 6.85718C146.43 6.85718 148.063 7.5061 149.292 8.80395C150.52 10.0786 151.134 11.8168 151.134 14.0185V24.691H148.11V14.1923C148.11 12.7786 147.727 11.6893 146.963 10.9245C146.198 10.1366 145.143 9.74257 143.799 9.74257C142.293 9.74257 141.076 10.2177 140.149 11.1679C139.222 12.0949 138.758 13.5318 138.758 15.4786V24.691H135.734V7.30911H138.758V9.81209C139.987 7.84215 141.864 6.85718 144.39 6.85718Z" fill="#09090B"/>
</svg>
