<svg width="152" height="32" viewBox="0 0 152 32" fill="none" xmlns="http://www.w3.org/2000/svg">
<path d="M31.9998 0L24.1727 7.84766L28.4881 12.1855C30.1069 13.8088 31.2098 15.8776 31.6561 18.1289C32.1027 20.3805 31.8737 22.7139 30.9979 24.835C30.1216 26.9557 28.6379 28.7686 26.7342 30.0439C24.8309 31.3192 22.5927 32 20.3035 32H0.000803544L7.76545 24.2129L3.39045 19.8145C1.77166 18.1912 0.668797 16.1224 0.222483 13.8711C-0.224143 11.6195 0.00486339 9.28574 0.880686 7.16504C1.75694 5.04431 3.24066 3.23139 5.14436 1.95605C7.04764 0.680819 9.2859 0 11.575 0H31.9998ZM11.575 7.86426C10.8368 7.86426 10.1147 8.08399 9.5008 8.49512C8.88743 8.90628 8.40934 9.49094 8.12678 10.1748C7.84422 10.8588 7.77104 11.6111 7.91487 12.3369C7.99829 12.7578 8.15226 13.1592 8.36897 13.5234C8.52633 13.7878 8.71614 14.033 8.93537 14.2529L13.3182 18.7324L7.93049 24.1357H20.3035C21.0417 24.1357 21.7639 23.916 22.3778 23.5049C22.9911 23.0937 23.4693 22.5086 23.7518 21.8252C24.0343 21.1413 24.1075 20.3888 23.9637 19.6631C23.8939 19.3107 23.7746 18.9722 23.6102 18.6572C23.436 18.3236 23.2116 18.0163 22.9432 17.7471L18.6209 13.3291L24.0701 7.86426H11.575Z" fill="white"/>
<path d="M45.7435 12.002C45.7435 12.6741 46.0796 13.2187 46.7517 13.6359C47.4238 14.0298 48.2349 14.3543 49.1852 14.6092C50.1354 14.841 51.0856 15.1191 52.0358 15.4436C52.986 15.7449 53.7971 16.2779 54.4692 17.0427C55.1413 17.7843 55.4774 18.7461 55.4774 19.9281C55.4774 21.504 54.8632 22.7671 53.6349 23.7173C52.4298 24.6675 50.877 25.1426 48.9766 25.1426C47.2847 25.1426 45.8363 24.7718 44.6311 24.0302C43.426 23.2886 42.5685 22.3036 42.0586 21.0753L44.6659 19.5805C44.944 20.4148 45.4654 21.0753 46.2302 21.562C46.995 22.0487 47.9105 22.292 48.9766 22.292C49.9731 22.292 50.7959 22.1066 51.4448 21.7358C52.0937 21.3418 52.4182 20.7392 52.4182 19.9281C52.4182 19.256 52.0821 18.7229 51.41 18.329C50.7379 17.9118 49.9268 17.5873 48.9766 17.3556C48.0264 17.1006 47.0762 16.8109 46.1259 16.4865C45.1757 16.162 44.3646 15.629 43.6925 14.8874C43.0204 14.1457 42.6843 13.1955 42.6843 12.0367C42.6843 10.5303 43.2637 9.29039 44.4225 8.31701C45.6045 7.34363 47.0762 6.85693 48.8375 6.85693C50.2512 6.85693 51.5027 7.18139 52.592 7.83032C53.7044 8.45606 54.5388 9.33675 55.095 10.4724L52.5572 11.8977C51.9315 10.4144 50.6916 9.67279 48.8375 9.67279C47.98 9.67279 47.25 9.88138 46.6474 10.2985C46.0448 10.6925 45.7435 11.2603 45.7435 12.002Z" fill="white"/>
<path d="M66.0572 25.1426C63.4384 25.1426 61.2598 24.2736 59.5217 22.5354C57.7835 20.774 56.9144 18.5955 56.9144 15.9998C56.9144 13.4041 57.7835 11.2372 59.5217 9.49898C61.2598 7.73761 63.4384 6.85693 66.0572 6.85693C67.7722 6.85693 69.3134 7.2741 70.6808 8.10843C72.0482 8.91958 73.0679 10.0204 73.74 11.411L71.2023 12.8711C70.7619 11.944 70.0782 11.2024 69.1512 10.6462C68.2473 10.09 67.216 9.81185 66.0572 9.81185C64.319 9.81185 62.859 10.4028 61.677 11.5848C60.5182 12.7668 59.9388 14.2384 59.9388 15.9998C59.9388 17.738 60.5182 19.1981 61.677 20.38C62.859 21.562 64.319 22.153 66.0572 22.153C67.216 22.153 68.2589 21.8864 69.186 21.3534C70.113 20.7972 70.8199 20.0556 71.3066 19.1285L73.8791 20.6234C73.1374 21.9907 72.0714 23.0916 70.6808 23.9259C69.2903 24.7371 67.7491 25.1426 66.0572 25.1426Z" fill="white"/>
<path d="M90.3245 7.30886H93.3489V24.6907H90.3245V21.701C88.8181 23.9954 86.6279 25.1426 83.7541 25.1426C81.3207 25.1426 79.2464 24.262 77.5314 22.5006C75.8164 20.7161 74.9589 18.5491 74.9589 15.9998C74.9589 13.4505 75.8164 11.2951 77.5314 9.53374C79.2464 7.7492 81.3207 6.85693 83.7541 6.85693C86.6279 6.85693 88.8181 8.00414 90.3245 10.2985V7.30886ZM84.1365 22.2225C85.8979 22.2225 87.3696 21.6315 88.5515 20.4495C89.7335 19.2444 90.3245 17.7612 90.3245 15.9998C90.3245 14.2384 89.7335 12.7668 88.5515 11.5848C87.3696 10.3797 85.8979 9.77709 84.1365 9.77709C82.3984 9.77709 80.9383 10.3797 79.7563 11.5848C78.5743 12.7668 77.9834 14.2384 77.9834 15.9998C77.9834 17.7612 78.5743 19.2444 79.7563 20.4495C80.9383 21.6315 82.3984 22.2225 84.1365 22.2225Z" fill="white"/>
<path d="M105.892 6.85693C107.932 6.85693 109.565 7.50586 110.794 8.8037C112.022 10.0784 112.636 11.8166 112.636 14.0183V24.6907H109.612V14.1921C109.612 12.7784 109.229 11.6891 108.465 10.9243C107.7 10.1363 106.645 9.74232 105.301 9.74232C103.795 9.74232 102.578 10.2174 101.651 11.1676C100.724 12.0947 100.26 13.5316 100.26 15.4783V24.6907H97.2359V7.30886H100.26V9.81185C101.489 7.84191 103.366 6.85693 105.892 6.85693Z" fill="white"/>
<path d="M118.284 17.3903C118.585 18.9431 119.292 20.1483 120.404 21.0058C121.54 21.8633 122.93 22.292 124.576 22.292C126.87 22.292 128.539 21.4461 129.582 19.7543L132.154 21.2143C130.463 23.8332 127.913 25.1426 124.506 25.1426C121.749 25.1426 119.5 24.2851 117.762 22.5701C116.047 20.8319 115.19 18.6418 115.19 15.9998C115.19 13.3809 116.036 11.2024 117.728 9.46421C119.419 7.72603 121.609 6.85693 124.298 6.85693C126.847 6.85693 128.921 7.76079 130.521 9.5685C132.143 11.353 132.954 13.5084 132.954 16.0346C132.954 16.4749 132.919 16.9268 132.85 17.3903H118.284ZM124.298 9.70756C122.676 9.70756 121.331 10.1711 120.265 11.0981C119.199 12.002 118.539 13.2187 118.284 14.7483H129.895C129.64 13.1028 128.991 11.8513 127.948 10.9938C126.905 10.1363 125.688 9.70756 124.298 9.70756Z" fill="white"/>
<path d="M144.392 6.85693C146.431 6.85693 148.065 7.50586 149.293 8.8037C150.522 10.0784 151.136 11.8166 151.136 14.0183V24.6907H148.111V14.1921C148.111 12.7784 147.729 11.6891 146.964 10.9243C146.199 10.1363 145.145 9.74232 143.801 9.74232C142.294 9.74232 141.077 10.2174 140.15 11.1676C139.223 12.0947 138.76 13.5316 138.76 15.4783V24.6907H135.735V7.30886H138.76V9.81185C139.988 7.84191 141.865 6.85693 144.392 6.85693Z" fill="white"/>
</svg>
