<svg width="32" height="32" viewBox="0 0 32 32" fill="none" xmlns="http://www.w3.org/2000/svg">
<path d="M32 0L24.1719 7.84863L28.4873 12.1855C30.106 13.8088 31.209 15.8776 31.6553 18.1289C32.1019 20.3805 31.8729 22.7139 30.9971 24.835C30.1208 26.9557 28.6371 28.7686 26.7334 30.0439C24.8301 31.3192 22.5919 32 20.3027 32H0L7.76562 24.2119L3.39062 19.8145C1.77183 18.1912 0.668966 16.1224 0.222656 13.8711C-0.22397 11.6195 0.00503641 9.28574 0.880859 7.16504C1.75711 5.04429 3.24082 3.2314 5.14453 1.95605C7.04784 0.680768 9.28603 0 11.5752 0H32ZM11.5752 7.86426C10.8369 7.86426 10.1149 8.08394 9.50098 8.49512C8.88758 8.90629 8.40951 9.49091 8.12695 10.1748C7.8444 10.8588 7.77121 11.6111 7.91504 12.3369C7.99846 12.7578 8.15243 13.1592 8.36914 13.5234C8.52651 13.7878 8.7163 14.033 8.93555 14.2529L13.3184 18.7324L7.93066 24.1357H20.3027C21.041 24.1357 21.7631 23.916 22.377 23.5049C22.9902 23.0938 23.4684 22.5086 23.751 21.8252C24.0335 21.1413 24.1066 20.3887 23.9629 19.6631C23.8931 19.3107 23.7738 18.9721 23.6094 18.6572C23.4352 18.3236 23.2108 18.0163 22.9424 17.7471L18.6201 13.3291L24.0693 7.86426H11.5752Z" fill="#6B75FF"/>
</svg>
