
<svg width="152" height="32" viewBox="0 0 152 32" fill="none" xmlns="http://www.w3.org/2000/svg">
<mask id="path-1-inside-1_1277_15486" fill="white">
<path d="M26.7345 30.044C24.8312 31.3193 22.593 32.0002 20.3038 32.0002H0.00117518L7.84414 24.1358H20.3038C21.042 24.1358 21.7635 23.9161 22.3775 23.505C22.991 23.0938 23.4693 22.5091 23.7519 21.8255C24.0345 21.1415 24.1081 20.3891 23.9643 19.6632C23.8945 19.3107 23.7749 18.9722 23.6104 18.6572C23.4361 18.3234 23.2116 18.0162 22.9431 17.7469L18.6215 13.329L24.1304 7.80469L28.4886 12.1858C30.1074 13.809 31.2101 15.8774 31.6564 18.1287C32.1031 20.3805 31.8739 22.7139 30.9981 24.835C30.1218 26.9558 28.6383 28.7686 26.7345 30.044Z"/>
</mask>
<path d="M23.6104 18.6572L19.9874 20.5766L19.9803 20.5632L19.9732 20.5496L23.6104 18.6572ZM23.596 18.6298L27.2141 16.7013L27.2237 16.7193L27.2331 16.7374L23.596 18.6298ZM23.6299 18.6947L19.9729 20.5486L19.9668 20.5365L19.9607 20.5243L23.6299 18.6947ZM22.9431 17.7469L25.8462 14.8517C26.3941 15.4012 26.8538 16.0253 27.2141 16.7013L23.596 18.6298L19.9778 20.5583C19.9936 20.5879 20.0143 20.6164 20.04 20.6421L22.9431 17.7469ZM23.6299 18.6947L27.2868 16.8408C27.6092 17.4767 27.8458 18.1578 27.9862 18.8666L23.9643 19.6632L19.9424 20.4599C19.9487 20.4917 19.9593 20.5216 19.9729 20.5486L23.6299 18.6947ZM23.596 18.6298L27.2331 16.7374C27.2293 16.7301 27.2264 16.7247 27.2253 16.7225C27.2243 16.7207 27.2237 16.7195 27.2252 16.7224C27.2261 16.724 27.2292 16.7299 27.2326 16.7363C27.2361 16.743 27.2414 16.7529 27.2475 16.7647L23.6104 18.6572L19.9732 20.5496C19.977 20.557 19.9799 20.5623 19.981 20.5645C19.982 20.5663 19.9826 20.5676 19.9811 20.5647C19.9802 20.563 19.9771 20.5571 19.9737 20.5508C19.9702 20.544 19.965 20.5341 19.9588 20.5223L23.596 18.6298ZM23.6104 18.6572L27.2333 16.7377C27.2357 16.7422 27.2664 16.7996 27.299 16.8651L23.6299 18.6947L19.9607 20.5243C19.9725 20.5479 19.9816 20.5655 19.9857 20.5734C19.9892 20.58 19.9918 20.5849 19.9874 20.5766L23.6104 18.6572ZM26.7345 30.044L22.17 23.2318L22.1706 23.2314L26.7345 30.044ZM0.00117518 32.0002V40.2002H-19.7573L-5.80503 26.2098L0.00117518 32.0002ZM7.84414 24.1358L2.03794 18.3454L4.44102 15.9358H7.84414V24.1358ZM22.3775 23.505L26.9426 30.3167L26.9406 30.3181L22.3775 23.505ZM23.7519 21.8255L31.3305 24.9566L31.3299 24.9582L23.7519 21.8255ZM23.9643 19.6632L15.9207 21.2572L15.9203 21.2552L23.9643 19.6632ZM23.6104 18.6572L16.3416 22.4526L16.3411 22.4517L23.6104 18.6572ZM22.9431 17.7469L17.1368 23.5373L17.1089 23.5093L17.0813 23.481L22.9431 17.7469ZM18.6215 13.329L12.7597 19.0631L7.09629 13.2737L12.815 7.53887L18.6215 13.329ZM24.1304 7.80469L18.3239 2.01451L24.1374 -3.81526L29.9438 2.02157L24.1304 7.80469ZM28.4886 12.1858L22.6824 17.9762L22.6752 17.9689L28.4886 12.1858ZM31.6564 18.1287L23.6131 19.7244L23.6129 19.7233L31.6564 18.1287ZM30.9981 24.835L38.5774 27.9646L38.5767 27.9663L30.9981 24.835ZM26.7345 30.044L31.2991 36.8561C28.0467 39.0355 24.22 40.2002 20.3038 40.2002V32.0002V23.8002C20.9661 23.8002 21.6157 23.6032 22.17 23.2318L26.7345 30.044ZM20.3038 32.0002V40.2002H0.00117518V32.0002V23.8002H20.3038V32.0002ZM0.00117518 32.0002L-5.80503 26.2098L2.03794 18.3454L7.84414 24.1358L13.6504 29.9262L5.80738 37.7906L0.00117518 32.0002ZM7.84414 24.1358V15.9358H20.3038V24.1358V32.3358H7.84414V24.1358ZM20.3038 24.1358V15.9358C19.4137 15.9358 18.5476 16.2008 17.8143 16.6919L22.3775 23.505L26.9406 30.3181C24.9795 31.6315 22.6704 32.3358 20.3038 32.3358V24.1358ZM22.3775 23.505L17.8123 16.6932C17.0763 17.1865 16.5083 17.8837 16.1738 18.6928L23.7519 21.8255L31.3299 24.9582C30.4303 27.1344 28.9057 29.0011 26.9426 30.3167L22.3775 23.505ZM23.7519 21.8255L16.1732 18.6943C15.8372 19.5075 15.7507 20.3992 15.9207 21.2572L23.9643 19.6632L32.0079 18.0693C32.4656 20.3789 32.2317 22.7754 31.3305 24.9566L23.7519 21.8255ZM23.9643 19.6632L15.9203 21.2552C16.0032 21.6744 16.1457 22.0775 16.3416 22.4526L23.6104 18.6572L30.8792 14.8618C31.404 15.8669 31.7858 16.947 32.0083 18.0713L23.9643 19.6632ZM23.6104 18.6572L16.3411 22.4517C16.549 22.8499 16.8168 23.2164 17.1368 23.5373L22.9431 17.7469L28.7493 11.9565C29.6064 12.816 30.3233 13.7968 30.8796 14.8627L23.6104 18.6572ZM22.9431 17.7469L17.0813 23.481L12.7597 19.0631L18.6215 13.329L24.4832 7.59494L28.8048 12.0128L22.9431 17.7469ZM18.6215 13.329L12.815 7.53887L18.3239 2.01451L24.1304 7.80469L29.9368 13.5949L24.4279 19.1192L18.6215 13.329ZM24.1304 7.80469L29.9438 2.02157L34.302 6.40267L28.4886 12.1858L22.6752 17.9689L18.3169 13.5878L24.1304 7.80469ZM28.4886 12.1858L34.2948 6.39541C37.0584 9.16657 38.9389 12.6954 39.6999 16.5342L31.6564 18.1287L23.6129 19.7233C23.4813 19.0595 23.1564 18.4514 22.6824 17.9762L28.4886 12.1858ZM31.6564 18.1287L39.6997 16.5331C40.4611 20.3711 40.0705 24.3486 38.5774 27.9646L30.9981 24.835L23.4187 21.7055C23.6773 21.0792 23.7451 20.3898 23.6131 19.7244L31.6564 18.1287ZM30.9981 24.835L38.5767 27.9663C37.0827 31.5823 34.5515 34.6773 31.2985 36.8566L26.7345 30.044L22.1706 23.2314C22.7251 22.8599 23.161 22.3293 23.4194 21.7038L30.9981 24.835Z" fill="white" mask="url(#path-1-inside-1_1277_15486)"/>
<path d="M4.28125 14.4639L4.26953 14.4346C4.27182 14.4405 4.2751 14.4493 4.2793 14.46C4.27975 14.4611 4.28078 14.4627 4.28125 14.4639Z" stroke="white" stroke-width="8.20003"/>
<path d="M45.7435 12.002C45.7435 12.6741 46.0796 13.2187 46.7517 13.6359C47.4238 14.0298 48.2349 14.3543 49.1852 14.6092C50.1354 14.841 51.0856 15.1191 52.0358 15.4436C52.986 15.7449 53.7971 16.2779 54.4692 17.0427C55.1413 17.7843 55.4774 18.7461 55.4774 19.9281C55.4774 21.504 54.8632 22.7671 53.6349 23.7173C52.4298 24.6675 50.877 25.1426 48.9766 25.1426C47.2847 25.1426 45.8363 24.7718 44.6311 24.0302C43.426 23.2886 42.5685 22.3036 42.0586 21.0753L44.6659 19.5805C44.944 20.4148 45.4654 21.0753 46.2302 21.562C46.995 22.0487 47.9105 22.292 48.9766 22.292C49.9731 22.292 50.7959 22.1066 51.4448 21.7358C52.0937 21.3418 52.4182 20.7392 52.4182 19.9281C52.4182 19.256 52.0821 18.7229 51.41 18.329C50.7379 17.9118 49.9268 17.5873 48.9766 17.3556C48.0264 17.1006 47.0762 16.8109 46.1259 16.4865C45.1757 16.162 44.3646 15.629 43.6925 14.8874C43.0204 14.1457 42.6843 13.1955 42.6843 12.0367C42.6843 10.5303 43.2637 9.29039 44.4225 8.31701C45.6045 7.34363 47.0762 6.85693 48.8375 6.85693C50.2512 6.85693 51.5027 7.18139 52.592 7.83032C53.7044 8.45606 54.5388 9.33675 55.095 10.4724L52.5572 11.8977C51.9315 10.4144 50.6916 9.67279 48.8375 9.67279C47.98 9.67279 47.25 9.88138 46.6474 10.2985C46.0448 10.6925 45.7435 11.2603 45.7435 12.002Z" fill="white"/>
<path d="M66.0572 25.1426C63.4384 25.1426 61.2598 24.2736 59.5217 22.5354C57.7835 20.774 56.9144 18.5955 56.9144 15.9998C56.9144 13.4041 57.7835 11.2372 59.5217 9.49898C61.2598 7.73761 63.4384 6.85693 66.0572 6.85693C67.7722 6.85693 69.3134 7.2741 70.6808 8.10843C72.0482 8.91958 73.0679 10.0204 73.74 11.411L71.2023 12.8711C70.7619 11.944 70.0782 11.2024 69.1512 10.6462C68.2473 10.09 67.216 9.81185 66.0572 9.81185C64.319 9.81185 62.859 10.4028 61.677 11.5848C60.5182 12.7668 59.9388 14.2384 59.9388 15.9998C59.9388 17.738 60.5182 19.1981 61.677 20.38C62.859 21.562 64.319 22.153 66.0572 22.153C67.216 22.153 68.2589 21.8864 69.186 21.3534C70.113 20.7972 70.8199 20.0556 71.3066 19.1285L73.8791 20.6234C73.1374 21.9907 72.0714 23.0916 70.6808 23.9259C69.2903 24.7371 67.7491 25.1426 66.0572 25.1426Z" fill="white"/>
<path d="M90.3245 7.30886H93.3489V24.6907H90.3245V21.701C88.8181 23.9954 86.6279 25.1426 83.7541 25.1426C81.3207 25.1426 79.2464 24.262 77.5314 22.5006C75.8164 20.7161 74.9589 18.5491 74.9589 15.9998C74.9589 13.4505 75.8164 11.2951 77.5314 9.53374C79.2464 7.7492 81.3207 6.85693 83.7541 6.85693C86.6279 6.85693 88.8181 8.00414 90.3245 10.2985V7.30886ZM84.1365 22.2225C85.8979 22.2225 87.3696 21.6315 88.5515 20.4495C89.7335 19.2444 90.3245 17.7612 90.3245 15.9998C90.3245 14.2384 89.7335 12.7668 88.5515 11.5848C87.3696 10.3797 85.8979 9.77709 84.1365 9.77709C82.3984 9.77709 80.9383 10.3797 79.7563 11.5848C78.5743 12.7668 77.9834 14.2384 77.9834 15.9998C77.9834 17.7612 78.5743 19.2444 79.7563 20.4495C80.9383 21.6315 82.3984 22.2225 84.1365 22.2225Z" fill="white"/>
<path d="M105.892 6.85693C107.932 6.85693 109.565 7.50586 110.794 8.8037C112.022 10.0784 112.636 11.8166 112.636 14.0183V24.6907H109.612V14.1921C109.612 12.7784 109.229 11.6891 108.465 10.9243C107.7 10.1363 106.645 9.74232 105.301 9.74232C103.795 9.74232 102.578 10.2174 101.651 11.1676C100.724 12.0947 100.26 13.5316 100.26 15.4783V24.6907H97.2359V7.30886H100.26V9.81185C101.489 7.84191 103.366 6.85693 105.892 6.85693Z" fill="white"/>
<path d="M118.284 17.3903C118.585 18.9431 119.292 20.1483 120.404 21.0058C121.54 21.8633 122.93 22.292 124.576 22.292C126.87 22.292 128.539 21.4461 129.582 19.7543L132.154 21.2143C130.463 23.8332 127.913 25.1426 124.506 25.1426C121.749 25.1426 119.5 24.2851 117.762 22.5701C116.047 20.8319 115.19 18.6418 115.19 15.9998C115.19 13.3809 116.036 11.2024 117.728 9.46421C119.419 7.72603 121.609 6.85693 124.298 6.85693C126.847 6.85693 128.921 7.76079 130.521 9.5685C132.143 11.353 132.954 13.5084 132.954 16.0346C132.954 16.4749 132.919 16.9268 132.85 17.3903H118.284ZM124.298 9.70756C122.676 9.70756 121.331 10.1711 120.265 11.0981C119.199 12.002 118.539 13.2187 118.284 14.7483H129.895C129.64 13.1028 128.991 11.8513 127.948 10.9938C126.905 10.1363 125.688 9.70756 124.298 9.70756Z" fill="white"/>
<path d="M144.392 6.85693C146.431 6.85693 148.065 7.50586 149.293 8.8037C150.522 10.0784 151.136 11.8166 151.136 14.0183V24.6907H148.111V14.1921C148.111 12.7784 147.729 11.6891 146.964 10.9243C146.199 10.1363 145.145 9.74232 143.801 9.74232C142.294 9.74232 141.077 10.2174 140.15 11.1676C139.223 12.0947 138.76 13.5316 138.76 15.4783V24.6907H135.735V7.30886H138.76V9.81185C139.988 7.84191 141.865 6.85693 144.392 6.85693Z" fill="white"/>
</svg>
